<?xml version="1.0" standalone="no"?>
<!DOCTYPE svg PUBLIC "-//W3C//DTD SVG 20010904//EN"
 "http://www.w3.org/TR/2001/REC-SVG-20010904/DTD/svg10.dtd">
<svg version="1.0" xmlns="http://www.w3.org/2000/svg"
 width="150.000000pt" height="150.000000pt" viewBox="0 0 150.000000 150.000000"
 preserveAspectRatio="xMidYMid meet">
<metadata>
Created by potrace 1.14, written by Peter Selinger 2001-2017
</metadata>
<g transform="translate(0.000000,150.000000) scale(0.100000,-0.100000)"
fill="#000000" stroke="none">
<path d="M430 1383 c-64 -24 -109 -94 -115 -177 -11 -156 90 -288 220 -288 61
0 105 30 139 93 26 46 28 58 24 128 -5 88 -30 146 -85 198 -48 44 -131 65
-183 46z"/>
<path d="M949 1381 c-44 -14 -77 -41 -109 -89 -71 -107 -70 -229 2 -322 29
-37 57 -49 111 -50 74 0 114 21 175 95 49 59 62 209 24 282 -12 23 -36 51 -53
64 -34 24 -107 34 -150 20z"/>
<path d="M188 980 c-184 -33 -181 -346 5 -441 154 -79 295 64 242 247 -38 133
-140 213 -247 194z"/>
<path d="M1211 972 c-100 -33 -179 -169 -165 -285 12 -105 70 -166 160 -168
150 -4 270 176 225 337 -28 101 -119 150 -220 116z"/>
<path d="M661 900 c-77 -33 -116 -86 -156 -211 -33 -107 -59 -148 -140 -229
-82 -82 -100 -118 -100 -195 1 -88 40 -134 120 -139 14 0 25 -4 25 -7 0 -3 11
-5 25 -3 14 1 59 5 100 9 41 3 88 10 104 15 16 4 32 6 34 3 3 -2 65 -6 138 -8
74 -2 154 -7 179 -12 107 -21 203 14 231 85 29 74 -6 160 -108 265 -81 85 -96
109 -129 219 -29 97 -52 137 -106 179 -36 29 -48 33 -117 36 -42 1 -87 -2
-100 -7z"/>
</g>
</svg>
